<mxfile host="65bd71144e">
    <diagram id="keK6ZDv3y6LvVpQ3XKYV" name="Page-1">
        <mxGraphModel dx="832" dy="576" grid="1" gridSize="10" guides="1" tooltips="1" connect="1" arrows="1" fold="1" page="1" pageScale="1" pageWidth="850" pageHeight="1100" background="#18141D" math="0" shadow="0">
            <root>
                <mxCell id="0"/>
                <mxCell id="1" parent="0"/>
                <mxCell id="2" value="Pracownik" style="shape=umlActor;verticalLabelPosition=bottom;verticalAlign=top;html=1;strokeColor=#F0F0F0;fillColor=#18141D;fontColor=#F0F0F0;labelBackgroundColor=none;" vertex="1" parent="1">
                    <mxGeometry x="90" y="215" width="30" height="60" as="geometry"/>
                </mxCell>
                <mxCell id="5" style="edgeStyle=none;html=1;exitX=0.5;exitY=1;exitDx=0;exitDy=0;entryX=0.5;entryY=0;entryDx=0;entryDy=0;endArrow=none;endFill=0;strokeColor=#F0F0F0;fillColor=#18141D;fontColor=#F0F0F0;labelBackgroundColor=none;" edge="1" parent="1" source="3" target="4">
                    <mxGeometry relative="1" as="geometry"/>
                </mxCell>
                <mxCell id="6" style="edgeStyle=none;html=1;exitX=0;exitY=0.5;exitDx=0;exitDy=0;entryX=0.5;entryY=0.5;entryDx=0;entryDy=0;entryPerimeter=0;endArrow=none;endFill=0;strokeColor=#F0F0F0;fillColor=#18141D;fontColor=#F0F0F0;labelBackgroundColor=none;" edge="1" parent="1" source="3" target="2">
                    <mxGeometry relative="1" as="geometry"/>
                </mxCell>
                <mxCell id="3" value="worker-control:WorkerControl" style="html=1;strokeColor=#F0F0F0;fillColor=#18141D;fontColor=#F0F0F0;labelBackgroundColor=none;" vertex="1" parent="1">
                    <mxGeometry x="380" y="220" width="170" height="50" as="geometry"/>
                </mxCell>
                <mxCell id="4" value="Raport:Raport" style="html=1;strokeColor=#F0F0F0;fillColor=#18141D;fontColor=#F0F0F0;labelBackgroundColor=none;" vertex="1" parent="1">
                    <mxGeometry x="410" y="570" width="110" height="50" as="geometry"/>
                </mxCell>
                <mxCell id="7" value="" style="html=1;verticalAlign=bottom;labelBackgroundColor=none;endArrow=block;endFill=1;strokeColor=#F0F0F0;fillColor=#18141D;fontColor=#F0F0F0;" edge="1" parent="1">
                    <mxGeometry width="160" relative="1" as="geometry">
                        <mxPoint x="170" y="215" as="sourcePoint"/>
                        <mxPoint x="330" y="215" as="targetPoint"/>
                    </mxGeometry>
                </mxCell>
                <mxCell id="10" value="" style="html=1;verticalAlign=bottom;labelBackgroundColor=none;endArrow=open;endFill=0;strokeColor=#F0F0F0;fillColor=#18141D;fontColor=#F0F0F0;" edge="1" parent="1">
                    <mxGeometry width="160" relative="1" as="geometry">
                        <mxPoint x="330" y="275" as="sourcePoint"/>
                        <mxPoint x="170" y="275" as="targetPoint"/>
                    </mxGeometry>
                </mxCell>
                <mxCell id="11" value="" style="html=1;verticalAlign=bottom;labelBackgroundColor=none;endArrow=block;endFill=1;strokeColor=#F0F0F0;fillColor=#18141D;fontColor=#F0F0F0;" edge="1" parent="1">
                    <mxGeometry width="160" relative="1" as="geometry">
                        <mxPoint x="500" y="310" as="sourcePoint"/>
                        <mxPoint x="500" y="520" as="targetPoint"/>
                    </mxGeometry>
                </mxCell>
                <mxCell id="12" value="" style="html=1;verticalAlign=bottom;labelBackgroundColor=none;endArrow=open;endFill=0;strokeColor=#F0F0F0;fillColor=#18141D;fontColor=#F0F0F0;" edge="1" parent="1">
                    <mxGeometry width="160" relative="1" as="geometry">
                        <mxPoint x="424" y="530" as="sourcePoint"/>
                        <mxPoint x="424" y="310" as="targetPoint"/>
                    </mxGeometry>
                </mxCell>
                <mxCell id="13" value="1. Otwórz sekcję generowania raportów" style="text;html=1;align=center;verticalAlign=middle;resizable=0;points=[];autosize=1;strokeColor=none;fillColor=none;fontColor=#F0F0F0;labelBackgroundColor=none;" vertex="1" parent="1">
                    <mxGeometry x="140" y="40" width="230" height="30" as="geometry"/>
                </mxCell>
                <mxCell id="92" value="2. Wyświetl sekcję generowania raportów" style="text;html=1;align=center;verticalAlign=middle;resizable=0;points=[];autosize=1;strokeColor=none;fillColor=none;fontColor=#F0F0F0;labelBackgroundColor=none;" vertex="1" parent="1">
                    <mxGeometry x="135" y="280" width="240" height="30" as="geometry"/>
                </mxCell>
                <mxCell id="93" value="3. Zainicjalizuj generowanie raportu" style="text;html=1;align=center;verticalAlign=middle;resizable=0;points=[];autosize=1;strokeColor=none;fillColor=none;fontColor=#F0F0F0;labelBackgroundColor=none;" vertex="1" parent="1">
                    <mxGeometry x="150" y="80" width="210" height="30" as="geometry"/>
                </mxCell>
                <mxCell id="94" value="4. Wyświetl dostępne rodzaje raportów" style="text;html=1;align=center;verticalAlign=middle;resizable=0;points=[];autosize=1;strokeColor=none;fillColor=none;fontColor=#F0F0F0;labelBackgroundColor=none;" vertex="1" parent="1">
                    <mxGeometry x="140" y="310" width="230" height="30" as="geometry"/>
                </mxCell>
                <mxCell id="95" value="5. Wybierz rodzaj raportu i wprowadź dane" style="text;html=1;align=center;verticalAlign=middle;resizable=0;points=[];autosize=1;strokeColor=none;fillColor=none;fontColor=#F0F0F0;labelBackgroundColor=none;" vertex="1" parent="1">
                    <mxGeometry x="140" y="120" width="250" height="30" as="geometry"/>
                </mxCell>
                <mxCell id="96" value="6. Zweryfikuj wprowadzone dane" style="text;html=1;align=center;verticalAlign=middle;resizable=0;points=[];autosize=1;strokeColor=none;fillColor=none;fontColor=#F0F0F0;labelBackgroundColor=none;" vertex="1" parent="1">
                    <mxGeometry x="520" y="310" width="200" height="30" as="geometry"/>
                </mxCell>
                <mxCell id="97" value="7. Zwróć informację o walidacji danych" style="text;html=1;align=center;verticalAlign=middle;resizable=0;points=[];autosize=1;strokeColor=none;fillColor=none;fontColor=#F0F0F0;labelBackgroundColor=none;" vertex="1" parent="1">
                    <mxGeometry x="195" y="480" width="230" height="30" as="geometry"/>
                </mxCell>
                <mxCell id="99" value="8. Wyświetl informację o poprawnych danych" style="text;html=1;align=center;verticalAlign=middle;resizable=0;points=[];autosize=1;strokeColor=none;fillColor=none;fontColor=#F0F0F0;labelBackgroundColor=none;" vertex="1" parent="1">
                    <mxGeometry x="130" y="335" width="260" height="30" as="geometry"/>
                </mxCell>
                <mxCell id="100" value="13. Wróć do sekcji generowania raportów" style="text;html=1;align=center;verticalAlign=middle;resizable=0;points=[];autosize=1;strokeColor=none;fillColor=none;fontColor=#F0F0F0;labelBackgroundColor=none;" vertex="1" parent="1">
                    <mxGeometry x="145" y="180" width="240" height="30" as="geometry"/>
                </mxCell>
                <mxCell id="101" value="9. Zatwierdź i pobierz raport" style="text;html=1;align=center;verticalAlign=middle;resizable=0;points=[];autosize=1;strokeColor=none;fillColor=none;fontColor=#F0F0F0;labelBackgroundColor=none;" vertex="1" parent="1">
                    <mxGeometry x="170" y="150" width="170" height="30" as="geometry"/>
                </mxCell>
                <mxCell id="102" value="10. Wygeneruj raport&amp;nbsp;" style="text;html=1;align=center;verticalAlign=middle;resizable=0;points=[];autosize=1;strokeColor=none;fillColor=none;fontColor=#F0F0F0;labelBackgroundColor=none;" vertex="1" parent="1">
                    <mxGeometry x="510" y="335" width="140" height="30" as="geometry"/>
                </mxCell>
                <mxCell id="103" value="11. Zwróć raport" style="text;html=1;align=center;verticalAlign=middle;resizable=0;points=[];autosize=1;strokeColor=none;fillColor=none;fontColor=#F0F0F0;labelBackgroundColor=none;" vertex="1" parent="1">
                    <mxGeometry x="305" y="510" width="110" height="30" as="geometry"/>
                </mxCell>
                <mxCell id="104" value="12. Zwróć raport" style="text;html=1;align=center;verticalAlign=middle;resizable=0;points=[];autosize=1;strokeColor=none;fillColor=none;fontColor=#F0F0F0;labelBackgroundColor=none;" vertex="1" parent="1">
                    <mxGeometry x="200" y="365" width="110" height="30" as="geometry"/>
                </mxCell>
            </root>
        </mxGraphModel>
    </diagram>
</mxfile>